<svg id="Capa_1" enable-background="new 0 0 512 512" height="512" viewBox="0 0 512 512" width="512" xmlns="http://www.w3.org/2000/svg"><g><path d="m512 27.667h-216c-15.75 0-29.964 6.665-40 17.31-10.036-10.645-24.25-17.31-40-17.31h-216v360.667h203.857v43.857c0 28.752 23.391 52.143 52.143 52.143s52.143-23.391 52.143-52.143v-43.857h203.857zm-30 330.666h-173.857v-27.169c19.108-8.77 35.649-22.2 48.156-38.831h84.201v-30h-67.512c4.153-10.705 6.874-22.117 7.934-34h59.578v-30h-60.473c-1.803-11.967-5.308-23.383-10.251-34h70.724v-30h-90.335c-19.888-22.6-47.76-38.007-79.165-41.767v-9.9c0-13.785 11.215-25 25-25h186zm-226 96c-12.21 0-22.143-9.933-22.143-22.143v-14.523h44.286v14.523c0 12.21-9.933 22.143-22.143 22.143zm-226-396.666h186c13.785 0 25 11.215 25 25v9.9c-31.404 3.76-59.277 19.166-79.165 41.767h-90.335v30h70.723c-4.943 10.617-8.448 22.033-10.251 34h-60.472v30h59.577c1.06 11.883 3.781 23.295 7.935 34h-67.512v30h84.2c12.507 16.631 29.048 30.062 48.156 38.831v27.169h-173.856zm321.431 159.431c0 52.621-42.81 95.431-95.431 95.431s-95.432-42.81-95.432-95.431 42.811-95.432 95.432-95.432 95.431 42.811 95.431 95.432zm-73.288 170.569h-44.286v-47.095c7.19 1.286 14.589 1.957 22.143 1.957s14.953-.672 22.143-1.957z"/><path d="m217.666 217.098c0-21.137 17.196-38.333 38.334-38.333v-30c-37.679 0-68.334 30.654-68.334 68.333z"/></g></svg>