<?xml version="1.0" encoding="iso-8859-1"?>
<!-- Generator: Adobe Illustrator 19.0.0, SVG Export Plug-In . SVG Version: 6.00 Build 0)  -->
<svg version="1.1" id="Capa_1" xmlns="http://www.w3.org/2000/svg" xmlns:xlink="http://www.w3.org/1999/xlink" x="0px" y="0px"
	 viewBox="0 0 508 508" style="enable-background:new 0 0 508 508;" xml:space="preserve">
<g>
	<g>
		<path d="M0,41v278.6h508V41H0z M16.4,57.4h48.5c-3.6,25.1-23.4,44.9-48.5,48.5V57.4z M16.4,303.2v-48.5
			c25.1,3.6,44.9,23.4,48.5,48.5H16.4z M491.6,303.2h-48.5c3.6-25.1,23.4-44.9,48.5-48.5V303.2z M491.6,238.1
			c-34.1,3.8-61.3,31-65.1,65.1h-345c-3.8-34.1-31-61.3-65.1-65.1V122.5c34.1-3.8,61.3-31,65.1-65.1h345c3.8,34.1,31,61.3,65.1,65.1
			V238.1z M491.6,105.9c-25.1-3.6-44.9-23.4-48.5-48.5h48.5V105.9z"/>
	</g>
</g>
<g>
	<g>
		<path d="M254,90.1c-36.1,0-65.5,40.4-65.5,90.1c0,49.7,29.4,90.1,65.5,90.1c36.1,0,65.5-40.4,65.5-90.1S290.1,90.1,254,90.1z
			 M254,254c-27.1,0-49.2-33.1-49.2-73.7s22.1-73.7,49.2-73.7s49.2,33.1,49.2,73.7S281.1,254,254,254z"/>
	</g>
</g>
<g>
	<g>
		<path d="M131.1,147.5c-18.1,0-32.8,14.7-32.8,32.8c0,18.1,14.7,32.7,32.8,32.7c18.1,0,32.8-14.7,32.8-32.8
			C163.9,162.1,149.2,147.5,131.1,147.5z M131.1,196.6c-9,0-16.4-7.3-16.4-16.4c0-9,7.4-16.4,16.4-16.4s16.4,7.3,16.4,16.4
			S140.1,196.6,131.1,196.6z"/>
	</g>
</g>
<g>
	<g>
		<path d="M376.9,147.5c-18.1,0-32.8,14.7-32.8,32.8c0,18.1,14.7,32.8,32.8,32.8s32.8-14.7,32.8-32.8
			C409.7,162.2,395,147.5,376.9,147.5z M376.9,196.6c-9,0-16.4-7.3-16.4-16.4c0-9,7.4-16.4,16.4-16.4s16.4,7.3,16.4,16.4
			S385.9,196.6,376.9,196.6z"/>
	</g>
</g>
<g>
	<g>
		<path d="M258.9,168.6v-25.1c4.1,1.7,6.6,5.1,7.6,10.2l16.2-2.1c-1.1-6.4-5-20.1-23.9-22.3V123h-9.3v6.3
			c-21.2,2.5-24.3,18.9-24.3,25.9c0,20,15.9,26.1,24.3,28.5v26.9c-6.6-3.6-9.4-10.8-10.1-14.2l-16.7,1.8
			c2.4,22.1,19.5,26.9,26.9,27.8v11.7h9.3v-12c23.6-3.5,26.5-21.6,26.5-29.3C285.4,189.5,285.4,175.1,258.9,168.6z M249.5,165.4
			c-2.8-1.2-8.3-4.8-8.3-11c0-6.9,5.7-10.3,8.3-11.2V165.4z M258.8,211.4v-25c3.9,1.2,10.8,4.4,10.8,12.2
			C269.6,207.5,262,210.8,258.8,211.4z"/>
	</g>
</g>
<g>
	<g>
		<polygon points="491.6,335.9 491.6,352.3 16.4,352.3 16.4,335.9 0,335.9 0,368.7 508,368.7 508,335.9 		"/>
	</g>
</g>
<g>
	<g>
		<polygon points="491.6,385.1 491.6,401.5 16.4,401.5 16.4,385.1 0,385.1 0,417.9 508,417.9 508,385.1 		"/>
	</g>
</g>
<g>
	<g>
		<polygon points="491.6,434.3 491.6,450.6 16.4,450.6 16.4,434.3 0,434.3 0,467 508,467 508,434.3 		"/>
	</g>
</g>
<g>
</g>
<g>
</g>
<g>
</g>
<g>
</g>
<g>
</g>
<g>
</g>
<g>
</g>
<g>
</g>
<g>
</g>
<g>
</g>
<g>
</g>
<g>
</g>
<g>
</g>
<g>
</g>
<g>
</g>
</svg>
